<svg version="1.2" xmlns="http://www.w3.org/2000/svg" viewBox="0 0 512 512" width="512" height="512"><defs><clipPath clipPathUnits="userSpaceOnUse" id="cp1"><path d="m256.16 21.63c-45.61 0-86.88 2.85-117.22 7.56-15.17 2.35-27.56 5.11-36.88 8.53-4.66 1.71-8.57 3.51-11.97 6.09-3.23 2.46-6.65 6.36-6.97 11.75h-0.75q0.01 15.13 1.07 29.82h-25.91q-0.18-11.94 0.38-23.88l-26.82-6.28c-8.54 106.67 33.01 210.5 109.47 284.43l15.66-29.59q-1.56-1.29-3.11-2.61-1.54-1.32-3.06-2.67-1.52-1.34-3.01-2.71-1.5-1.37-2.98-2.76 2.22-2.31 4.53-4.53 2.32-2.21 4.74-4.32 2.41-2.11 4.91-4.11 2.51-2 5.1-3.88c13.47 13.17 28.18 23.56 43.81 30.65 22.12 17.75 8.06 29.37-23.5 36.25 58.87 10.6 38.95 62.27-14.12 92.32-2.14 0.27-4.26 0.52-6.28 0.81-12.05 1.72-21.88 3.71-29.41 6.25-3.76 1.27-6.95 2.6-9.9 4.65-2.95 2.06-6.63 5.71-6.63 11.41 0 5.7 3.68 9.32 6.63 11.37 2.95 2.06 6.14 3.39 9.9 4.66 7.53 2.54 17.36 4.53 29.41 6.25 24.09 3.44 56.78 5.53 92.91 5.53 36.12 0 68.81-2.09 92.9-5.53 12.05-1.72 21.88-3.71 29.41-6.25 3.76-1.27 6.96-2.6 9.9-4.65 2.95-2.06 6.63-5.68 6.63-11.38 0-5.7-3.68-9.35-6.63-11.41-2.94-2.05-6.14-3.38-9.9-4.65-7.53-2.54-17.36-4.53-29.41-6.25-2.01-0.29-4.12-0.55-6.25-0.82-53.08-30.04-72.99-81.71-14.13-92.31-31.56-6.88-45.63-18.52-23.46-36.28 15.74-7.15 30.54-17.65 44.09-30.97 6.65 4.78 12.84 10.04 18.47 15.72q-1.55 1.58-3.11 3.13-1.57 1.55-3.16 3.07-1.59 1.53-3.2 3.04-1.62 1.5-3.25 2.98l16.19 29.59c79.11-71.95 116.19-179.53 110.03-285l-27.35 7.97q0.68 11.42 0.57 22.75h-25.6q0.27-3.72 0.47-7.44 0.2-3.73 0.33-7.45 0.13-3.73 0.2-7.46 0.07-3.73 0.07-7.46h-0.75c-0.33-5.39-3.77-9.29-7-11.75-3.41-2.58-7.31-4.38-11.97-6.09-9.32-3.43-21.71-6.18-36.88-8.54-30.34-4.71-71.61-7.56-117.21-7.56zm0 18.69c44.82 0 85.42 2.86 114.34 7.35 14.46 2.24 26.06 4.93 33.31 7.59 1.04 0.38 1.78 0.75 2.63 1.12-0.85 0.38-1.58 0.75-2.63 1.13-7.25 2.66-18.85 5.38-33.31 7.62-28.92 4.49-69.52 7.35-114.34 7.35-44.82 0-85.43-2.86-114.35-7.35-14.46-2.24-26.06-4.96-33.31-7.62-1.05-0.39-1.77-0.75-2.63-1.13 0.86-0.37 1.58-0.74 2.63-1.12 7.25-2.66 18.85-5.35 33.31-7.6 28.92-4.49 69.53-7.34 114.35-7.34zm-197.25 71.88h27.34c8.06 57.87 28.23 108.83 56.19 146.25-6.98 5.74-13.41 11.96-19.19 18.68-38.65-46.45-59.04-104.64-64.34-164.93zm367.18 0h27c-5.58 59.63-27.75 116.15-65.06 162.81q-2.06-2.29-4.21-4.5-2.15-2.21-4.38-4.33-2.23-2.13-4.55-4.16-2.31-2.04-4.7-3.98c27.81-37.38 47.87-88.18 55.9-145.84z"/></clipPath></defs><style>.a{fill:#fff}.b{fill:#3b82f6}</style><g clip-path="url(#cp1)"><path class="a" d="m256.2 21.6c-45.6 0-86.9 2.9-117.3 7.6-15.1 2.3-27.5 5.1-36.8 8.5-4.7 1.7-8.6 3.5-12 6.1-3.2 2.5-6.7 6.4-7 11.8h-0.7q0 15.1 1 29.8h-25.9q-0.2-12 0.4-23.9l-26.8-6.3c-8.5 106.7 33 210.5 109.5 284.5l15.6-29.6q-1.5-1.3-3.1-2.7-1.5-1.3-3-2.6-1.6-1.4-3.1-2.7-1.5-1.4-2.9-2.8 2.2-2.3 4.5-4.5 2.3-2.2 4.7-4.3 2.4-2.1 4.9-4.1 2.5-2 5.1-3.9c13.5 13.1 28.2 23.5 43.9 30.6 22.1 17.8 8 29.4-23.5 36.3 58.8 10.6 38.9 62.2-14.2 92.3-2.1 0.3-4.2 0.5-6.3 0.8-12 1.7-21.8 3.7-29.4 6.2-3.7 1.3-6.9 2.6-9.9 4.7-2.9 2.1-6.6 5.7-6.6 11.4 0 5.7 3.7 9.3 6.6 11.4 3 2 6.2 3.4 9.9 4.6 7.6 2.6 17.4 4.6 29.4 6.3 24.1 3.4 56.8 5.5 93 5.5 36.1 0 68.8-2.1 92.9-5.5 12-1.7 21.8-3.7 29.4-6.3 3.7-1.2 6.9-2.6 9.9-4.6 2.9-2.1 6.6-5.7 6.6-11.4 0-5.7-3.7-9.3-6.6-11.4-3-2.1-6.2-3.4-9.9-4.7-7.6-2.5-17.4-4.5-29.4-6.2-2.1-0.3-4.2-0.5-6.3-0.8-53.1-30.1-73-81.7-14.1-92.3-31.6-6.9-45.6-18.5-23.5-36.3 15.8-7.2 30.6-17.7 44.1-31 6.7 4.8 12.8 10.1 18.5 15.7q-1.6 1.6-3.1 3.2-1.6 1.5-3.2 3-1.6 1.6-3.2 3.1-1.6 1.5-3.2 3l16.1 29.6c79.2-72 116.2-179.6 110.1-285l-27.4 7.9q0.7 11.4 0.6 22.8h-25.6q0.3-3.7 0.5-7.5 0.2-3.7 0.3-7.4 0.1-3.8 0.2-7.5 0.1-3.7 0.1-7.4h-0.8c-0.3-5.4-3.7-9.3-7-11.8-3.4-2.6-7.3-4.4-12-6.1-9.3-3.4-21.7-6.2-36.8-8.5-30.4-4.7-71.6-7.6-117.2-7.6zm0 18.7c44.8 0 85.4 2.9 114.3 7.4 14.5 2.2 26.1 4.9 33.3 7.5 1.1 0.4 1.8 0.8 2.6 1.2-0.8 0.3-1.5 0.7-2.6 1.1-7.2 2.7-18.8 5.4-33.3 7.6-28.9 4.5-69.5 7.4-114.3 7.4-44.9 0-85.5-2.9-114.4-7.4-14.4-2.2-26-4.9-33.3-7.6-1-0.4-1.8-0.7-2.6-1.1 0.8-0.4 1.6-0.8 2.6-1.2 7.3-2.6 18.9-5.3 33.3-7.5 28.9-4.5 69.5-7.4 114.4-7.4zm-197.3 71.9h27.4c8 57.9 28.2 108.8 56.1 146.2-6.9 5.8-13.4 12-19.1 18.7-38.7-46.4-59.1-104.6-64.4-164.9zm367.2 0h27c-5.6 59.6-27.8 116.1-65.1 162.8q-2-2.3-4.2-4.5-2.1-2.2-4.4-4.3-2.2-2.2-4.5-4.2-2.3-2-4.7-4c27.8-37.4 47.9-88.1 55.9-145.8z"/><path fill-rule="evenodd" class="b" d="m522-45v573h-560v-573z"/></g><path class="a" d="m220.3 212.6l-34.8-20.1v-84.9l34.8-20.1h75.9l34.8 20.1v39.9h-42v-24h-61.5v50.1h68.7l34.8 20.1v86.7l-34.8 20.1h-78.9l-34.8-20.1v-39.9h42v24h64.5v-51.9z"/></svg>